<?xml version="1.0" encoding="UTF-8" standalone="no" ?>
<!DOCTYPE svg PUBLIC "-//W3C//DTD SVG 1.1//EN" "http://www.w3.org/Graphics/SVG/1.1/DTD/svg11.dtd">
<svg xmlns="http://www.w3.org/2000/svg" xmlns:xlink="http://www.w3.org/1999/xlink" version="1.1" width="1080" height="1080" viewBox="0 0 1080 1080" xml:space="preserve">
<desc>Created with Fabric.js 5.2.4</desc>
<defs>
</defs>
<rect x="0" y="0" width="100%" height="100%" fill="transparent"></rect>
<g transform="matrix(0 0 0 0 0 0)" id="a5b05f19-7e8a-4d56-a3e5-3410f46a2f71"  >
</g>
<g transform="matrix(1 0 0 1 540 540)" id="bee27862-12b7-4454-adab-8b33d9a5b33d"  >
<rect style="stroke: none; stroke-width: 1; stroke-dasharray: none; stroke-linecap: butt; stroke-dashoffset: 0; stroke-linejoin: miter; stroke-miterlimit: 4; fill: rgb(255,255,255); fill-rule: nonzero; opacity: 1; visibility: hidden;" vector-effect="non-scaling-stroke"  x="-540" y="-540" rx="0" ry="0" width="1080" height="1080" />
</g>
<g transform="matrix(1.27 0 0 1.27 540 536)"  >
<g style="" vector-effect="non-scaling-stroke"   >
		<g transform="matrix(1 0 0 1 -267.49 -377.17)" id="backgroundrect"  >
<rect style="stroke: none; stroke-width: 1; stroke-dasharray: none; stroke-linecap: butt; stroke-dashoffset: 0; stroke-linejoin: miter; stroke-miterlimit: 4; fill: none; fill-rule: nonzero; opacity: 1;" vector-effect="non-scaling-stroke"  x="-50" y="-50" rx="0" ry="0" width="100" height="100" />
</g>
		<g transform="matrix(1 0 0 1 5.12 -72.89)" id="svg_2"  >
<path style="stroke: none; stroke-width: 1; stroke-dasharray: none; stroke-linecap: butt; stroke-dashoffset: 0; stroke-linejoin: miter; stroke-miterlimit: 4; fill: rgb(43,18,23); fill-rule: nonzero; opacity: 1;" vector-effect="non-scaling-stroke"  transform=" translate(-322.61, -354.27)" d="M 197.092377 677.876953 C 193.567444 675.681519 190.130676 673.325745 186.497162 671.327698 C 180.879715 668.23877 179.169037 663.28418 178.827667 657.292053 C 176.704071 620.017639 160.408646 589.929688 131.472763 566.870361 C 77.843491 524.132629 41.124435 470.118958 22.020819 404.292664 C 15.574789 382.081268 12.253196 359.281891 10.824909 336.142761 C 7.969358 289.881104 15.738982 245.435455 32.860008 202.562088 C 46.437771 168.561539 65.714378 138.095016 90.280533 110.86412 C 121.449509 76.314178 158.299698 49.778053 201.016129 31.53437 C 226.132782 20.807339 252.224548 12.971997 279.471649 10.064959 C 295.486237 8.356339 311.644836 7.147303 327.736603 7.170101 C 378.216797 7.241619 425.762238 19.754774 470.074707 43.755669 C 531.486328 77.017944 577.079712 125.574974 606.597351 188.825729 C 619.695496 216.892456 628.14978 246.497604 632.195618 277.351868 C 635.175659 300.078796 635.775757 322.792053 633.919006 345.587769 C 630.036804 393.250519 615.816833 437.659485 591.509216 478.820984 C 571.361633 512.938171 545.263916 541.771118 514.151184 566.251831 C 483.734558 590.184814 467.703461 621.616211 465.977631 660.396057 C 465.848755 663.29248 463.983215 666.854492 461.765594 668.752502 C 457.770447 672.171753 452.89679 674.564575 447.768799 677.607666 C 435.910248 681.947693 424.875732 686.777832 413.39682 690.047913 C 381.969147 699.001038 349.723206 701.685242 317.133301 701.344788 C 281.621643 700.973755 246.816544 696.554382 213.305206 684.212341 C 207.861572 682.207397 202.494736 679.993958 197.092377 677.876953 M 489.592499 357.986725 C 489.504761 363.630981 489.730652 369.300507 489.27774 374.915314 C 486.625732 407.795349 460.511353 436.154572 427.808472 440.450867 C 414.847534 442.153564 401.570129 441.562195 388.432922 441.776245 C 374.592224 442.001709 374.704285 441.876923 374.713013 455.763733 C 374.753723 520.422668 374.725922 585.081543 374.722656 649.740479 C 374.722473 653.800476 374.722626 657.860474 374.722626 662.256165 C 392.348053 659.785034 407.407318 653.517822 422.178101 646.021606 C 429.31308 642.400574 432.678497 637.291565 434.337921 629.703491 C 442.187042 593.811768 459.979858 563.714172 488.913849 540.888 C 523.854248 513.323364 552.281311 480.613342 571.789429 440.397552 C 588.872864 405.180237 597.877319 368.064331 599.172241 328.938385 C 600.075684 301.638092 597.23938 274.785522 590.277344 248.455917 C 578.761047 204.902603 557.882202 166.386856 527.251648 133.169632 C 503.506348 107.419235 476.295776 86.384888 444.847168 70.894806 C 409.91864 53.690697 373.032349 44.574078 334.096924 42.737827 C 303.83429 41.310593 274.260101 44.837894 245.395782 53.369209 C 189.316422 69.944389 142.981094 101.414337 106.366104 147.005249 C 69.966789 192.327606 49.946503 244.209091 46.196026 302.112427 C 44.557869 327.403809 46.5201 352.611328 51.888889 377.535767 C 64.971458 438.271271 95.401291 488.549561 142.154129 529.213562 C 152.951157 538.60437 164.189468 547.646973 173.927765 558.062439 C 193.452896 578.945312 205.658371 603.977417 211.53038 631.930725 C 212.909134 638.494324 216.364944 642.817566 221.939407 645.647461 C 228.464691 648.960205 235.076706 652.174683 241.880447 654.848083 C 250.642014 658.290833 259.64035 661.113342 270.277283 661.454956 C 270.277283 655.888123 270.277283 650.752075 270.277283 645.616028 C 270.277222 583.121338 270.28479 520.626709 270.259125 458.132019 C 270.257507 454.13562 269.856171 450.137665 269.903442 446.143524 C 269.941742 442.903076 268.60614 441.836212 265.413574 441.855286 C 253.916977 441.924011 242.417358 441.610687 230.922012 441.7341 C 218.143204 441.871307 206.08876 439.194519 194.948807 432.947876 C 168.890396 418.335846 154.838303 395.911163 155.09198 366.140594 C 155.413712 328.381714 181.253662 297.389923 219.897781 292.37851 C 249.334534 288.561066 273.219299 298.835327 291.100708 322.507355 C 302.682739 337.840057 305.96582 355.656372 305.65509 374.432068 C 305.506226 383.428833 305.763123 392.433533 305.537964 401.427155 C 305.443939 405.182312 306.827087 406.38092 310.447266 406.301788 C 318.439545 406.127106 326.443085 406.087341 334.432434 406.320953 C 338.485535 406.439484 339.394043 404.767761 339.407623 401.01889 C 339.456482 387.542664 339.29541 374.031647 340.192505 360.599121 C 342.696289 323.109863 373.931335 292.19873 413.739136 291.471436 C 451.821167 290.775604 485.104645 319.218964 489.592499 357.986725 M 324.3479 667.967407 C 329.261719 667.587036 334.175537 667.206665 339.393433 666.802734 C 339.393433 663.759949 339.393433 661.270691 339.393433 658.781433 C 339.393555 589.328796 339.394226 519.87616 339.390594 450.423492 C 339.390503 448.758362 339.243011 447.087524 339.338989 445.429443 C 339.491394 442.797577 338.229767 441.938477 335.747833 441.963898 C 327.425659 442.049072 319.101074 442.114685 310.779968 442.001404 C 306.689697 441.94574 305.489349 443.664673 305.496643 447.695618 C 305.625305 518.97998 305.618011 590.264648 305.657715 661.549194 C 305.658691 663.308777 305.860229 665.068237 305.978729 666.998779 C 312.140198 667.349731 317.774261 667.670654 324.3479 667.967407 M 375.445282 362.174164 C 375.325714 375.324005 375.195374 388.473785 375.096313 401.623779 C 375.078094 404.044098 375.154633 406.375153 378.6409 406.317719 C 393.277679 406.07666 408.048645 407.07431 422.519958 405.423035 C 441.07077 403.306274 456.173828 383.370941 454.726257 365.460663 C 452.935913 343.309418 436.503967 327.07959 415.903961 326.768707 C 398.415161 326.504761 378.708313 339.318939 375.445282 362.174164 M 231.383881 326.809448 C 209.221909 326.952759 192.149673 342.610046 190.459747 364.341766 C 188.912308 384.240845 204.003204 403.4534 224.928253 405.848053 C 238.557373 407.407776 252.496567 406.236969 266.296478 406.341858 C 269.258789 406.364349 269.929626 404.624695 269.915375 402.170349 C 269.83902 389.037354 270.592468 375.835205 269.500031 362.787476 C 267.838226 342.939697 252.237869 328.50943 231.383881 326.809448 z" stroke-linecap="round" />
</g>
		<g transform="matrix(1 0 0 1 5.28 381.91)" id="svg_3"  >
<path style="stroke: none; stroke-width: 1; stroke-dasharray: none; stroke-linecap: butt; stroke-dashoffset: 0; stroke-linejoin: miter; stroke-miterlimit: 4; fill: rgb(43,18,22); fill-rule: nonzero; opacity: 1;" vector-effect="non-scaling-stroke"  transform=" translate(-322.77, -809.07)" d="M 448.966766 769.624939 C 454.441742 767.761047 459.916718 765.897095 465.895874 763.861511 C 466.836914 779.395325 461.286926 791.874634 450.770569 802.249451 C 434.022064 818.772522 413.102875 827.478699 390.729675 832.931519 C 381.878357 835.088745 373.907654 838.309021 366.344543 843.495361 C 353.083344 852.589233 337.607452 854.17511 322.037689 854.325745 C 310.011566 854.442139 298.212341 852.690369 287.010376 847.97583 C 285.482727 847.332886 283.764221 846.865967 282.533417 845.838928 C 272.227692 837.239197 259.59317 834.486511 247.121109 830.914612 C 227.791824 825.378845 209.587234 817.340027 195.013123 802.823486 C 184.397018 792.249329 178.323853 779.823547 179.734299 763.816345 C 185.057327 765.761902 190.151062 767.623657 195.882446 769.775574 C 233.582687 783.677246 272.228149 788.606262 311.342926 789.942078 C 339.108887 790.890198 366.839752 788.898804 394.264832 784.12085 C 412.89798 780.874695 431.410736 777.011841 448.966766 769.624939 z" stroke-linecap="round" />
</g>
		<g transform="matrix(1 0 0 1 4.91 303.73)" id="svg_4"  >
<path style="stroke: none; stroke-width: 1; stroke-dasharray: none; stroke-linecap: butt; stroke-dashoffset: 0; stroke-linejoin: miter; stroke-miterlimit: 4; fill: rgb(43,18,22); fill-rule: nonzero; opacity: 1;" vector-effect="non-scaling-stroke"  transform=" translate(-322.4, -730.89)" d="M 449.001038 706.555298 C 454.295044 704.314087 459.589081 702.072876 465.796417 699.445007 C 465.796417 710.421997 465.882294 720.595215 465.670868 730.762329 C 465.648376 731.843933 464.080444 733.248779 462.896942 733.888428 C 458.10498 736.478455 453.183014 738.828003 447.631409 741.404358 C 441.620514 743.405273 436.328583 745.398315 430.947144 747.109741 C 395.942078 758.241394 359.951935 762.262939 323.348206 762.342529 C 292.317566 762.410034 261.622803 759.766968 231.540176 751.961365 C 219.84523 748.926941 208.398026 744.937744 196.837982 741.383423 C 196.381805 741.18634 195.920425 741.000427 195.470245 740.790466 C 178.224045 732.746765 178.944107 735.17981 179.001724 714.091675 C 179.014282 709.497498 179.462372 704.904602 179.750275 699.561157 C 184.598877 701.646973 188.787979 703.449036 193.549637 705.628174 C 232.941635 722.003113 273.683197 727.849915 315.322754 728.959106 C 341.004395 729.643188 366.451904 727.154053 391.74057 722.988708 C 411.443237 719.743347 430.690765 714.737549 449.001038 706.555298 z" stroke-linecap="round" />
</g>
		<g transform="matrix(1 0 0 1 3.94 276.29)" id="svg_5"  >
<path style="stroke: none; stroke-width: 1; stroke-dasharray: none; stroke-linecap: butt; stroke-dashoffset: 0; stroke-linejoin: miter; stroke-miterlimit: 4; fill: rgb(177,177,177); fill-rule: nonzero; opacity: 1;" vector-effect="non-scaling-stroke"  transform=" translate(-321.43, -703.46)" d="M 448.965881 706.075806 C 430.690765 714.737549 411.443237 719.743347 391.74057 722.988708 C 366.451904 727.154053 341.004395 729.643188 315.322754 728.959106 C 273.683197 727.849915 232.941635 722.003113 193.89679 705.727905 C 194.751923 701.839783 196.39534 698.287537 196.777863 694.604248 C 197.319031 689.393494 196.929276 684.086121 197.014908 678.348511 C 202.494736 679.993958 207.861572 682.207397 213.305206 684.212341 C 246.816544 696.554382 281.621643 700.973755 317.133301 701.344788 C 349.723206 701.685242 381.969147 699.001038 413.39682 690.047913 C 424.875732 686.777832 435.910248 681.947693 447.522064 677.845337 C 448.241302 687.106445 448.585999 696.351379 448.965881 706.075806 z" stroke-linecap="round" />
</g>
		<g transform="matrix(1 0 0 1 5.17 338.72)" id="svg_6"  >
<path style="stroke: none; stroke-width: 1; stroke-dasharray: none; stroke-linecap: butt; stroke-dashoffset: 0; stroke-linejoin: miter; stroke-miterlimit: 4; fill: rgb(177,177,177); fill-rule: nonzero; opacity: 1;" vector-effect="non-scaling-stroke"  transform=" translate(-322.66, -765.89)" d="M 196.824554 741.827393 C 208.398026 744.937744 219.84523 748.926941 231.540176 751.961365 C 261.622803 759.766968 292.317566 762.410034 323.348206 762.342529 C 359.951935 762.262939 395.942078 758.241394 430.947144 747.109741 C 436.328583 745.398315 441.620514 743.405273 447.341339 741.601685 C 448.187195 750.653748 448.645569 759.646545 449.035339 769.132141 C 431.410736 777.011841 412.89798 780.874695 394.264832 784.12085 C 366.839752 788.898804 339.108887 790.890198 311.342926 789.942078 C 272.228149 788.606262 233.582687 783.677246 196.275024 769.839355 C 196.290344 760.499146 196.55072 751.385193 196.824554 741.827393 z" stroke-linecap="round" />
</g>
		<g transform="matrix(1 0 0 1 5 -74.82)" id="svg_7"  >
<path style="stroke: none; stroke-width: 1; stroke-dasharray: none; stroke-linecap: butt; stroke-dashoffset: 0; stroke-linejoin: miter; stroke-miterlimit: 4; fill: rgb(153,216,233); fill-rule: nonzero; opacity: 1;" vector-effect="non-scaling-stroke"  transform=" translate(-322.48, -352.34)" d="M 489.550354 357.537598 C 485.104645 319.218964 451.821167 290.775604 413.739136 291.471436 C 373.931335 292.19873 342.696289 323.109863 340.192505 360.599121 C 339.29541 374.031647 339.456482 387.542664 339.407623 401.01889 C 339.394043 404.767761 338.485535 406.439484 334.432434 406.320953 C 326.443085 406.087341 318.439545 406.127106 310.447266 406.301788 C 306.827087 406.38092 305.443939 405.182312 305.537964 401.427155 C 305.763123 392.433533 305.506226 383.428833 305.65509 374.432068 C 305.96582 355.656372 302.682739 337.840057 291.100708 322.507355 C 273.219299 298.835327 249.334534 288.561066 219.897781 292.37851 C 181.253662 297.389923 155.413712 328.381714 155.09198 366.140594 C 154.838303 395.911163 168.890396 418.335846 194.948807 432.947876 C 206.08876 439.194519 218.143204 441.871307 230.922012 441.7341 C 242.417358 441.610687 253.916977 441.924011 265.413574 441.855286 C 268.60614 441.836212 269.941742 442.903076 269.903442 446.143524 C 269.856171 450.137665 270.257507 454.13562 270.259125 458.132019 C 270.28479 520.626709 270.277222 583.121338 270.277283 645.616028 C 270.277283 650.752075 270.277283 655.888123 270.277283 661.454956 C 259.64035 661.113342 250.642014 658.290833 241.880447 654.848083 C 235.076706 652.174683 228.464691 648.960205 221.939407 645.647461 C 216.364944 642.817566 212.909134 638.494324 211.53038 631.930725 C 205.658371 603.977417 193.452896 578.945312 173.927765 558.062439 C 164.189468 547.646973 152.951157 538.60437 142.154129 529.213562 C 95.401291 488.549561 64.971458 438.271271 51.888889 377.535767 C 46.5201 352.611328 44.557869 327.403809 46.196026 302.112427 C 49.946503 244.209091 69.966789 192.327606 106.366104 147.005249 C 142.981094 101.414337 189.316422 69.944389 245.395782 53.369209 C 274.260101 44.837894 303.83429 41.310593 334.096924 42.737827 C 373.032349 44.574078 409.91864 53.690697 444.847168 70.894806 C 476.295776 86.384888 503.506348 107.419235 527.251648 133.169632 C 557.882202 166.386856 578.761047 204.902603 590.277344 248.455917 C 597.23938 274.785522 600.075684 301.638092 599.172241 328.938385 C 597.877319 368.064331 588.872864 405.180237 571.789429 440.397552 C 552.281311 480.613342 523.854248 513.323364 488.913849 540.888 C 459.979858 563.714172 442.187042 593.811768 434.337921 629.703491 C 432.678497 637.291565 429.31308 642.400574 422.178101 646.021606 C 407.407318 653.517822 392.348053 659.785034 374.722626 662.256165 C 374.722626 657.860474 374.722473 653.800476 374.722656 649.740479 C 374.725922 585.081543 374.753723 520.422668 374.713013 455.763733 C 374.704285 441.876923 374.592224 442.001709 388.432922 441.776245 C 401.570129 441.562195 414.847534 442.153564 427.808472 440.450867 C 460.511353 436.154572 486.625732 407.795349 489.27774 374.915314 C 489.730652 369.300507 489.504761 363.630981 489.550354 357.537598 M 330.620728 76.098427 C 327.852325 68.491333 321.695984 63.808262 313.614899 64.067581 C 305.505951 64.327797 297.387451 65.014679 289.328583 65.978188 C 262.887726 69.13942 237.683838 76.729988 213.685852 88.175789 C 184.569351 102.062866 158.937622 120.740379 136.90509 144.407196 C 121.05603 161.431915 107.44178 179.970535 96.684334 200.60347 C 84.297371 224.361816 75.70192 249.452744 71.371246 275.852356 C 69.417938 287.759674 68.734535 299.908875 68.065529 311.981079 C 67.646973 319.533844 72.701134 326.47406 79.07972 328.841705 C 90.853653 333.212006 102.74678 325.230774 103.939537 312.157257 C 104.647682 304.395508 104.979843 296.578125 106.122322 288.88092 C 111.850494 250.288483 126.474632 215.390778 150.34584 184.478165 C 170.722382 158.091095 196.114975 137.690186 225.80925 122.744263 C 253.479477 108.817116 283.012634 101.680214 313.901001 99.944695 C 326.542694 99.234383 334.07608 88.93 330.620728 76.098427 z" stroke-linecap="round" />
</g>
		<g transform="matrix(1 0 0 1 4.96 127.81)" id="svg_8"  >
<path style="stroke: none; stroke-width: 1; stroke-dasharray: none; stroke-linecap: butt; stroke-dashoffset: 0; stroke-linejoin: miter; stroke-miterlimit: 4; fill: rgb(153,217,234); fill-rule: nonzero; opacity: 1;" vector-effect="non-scaling-stroke"  transform=" translate(-322.45, -554.97)" d="M 323.878113 667.979492 C 317.774261 667.670654 312.140198 667.349731 305.978729 666.998779 C 305.860229 665.068237 305.658691 663.308777 305.657715 661.549194 C 305.618011 590.264648 305.625305 518.97998 305.496643 447.695618 C 305.489349 443.664673 306.689697 441.94574 310.779968 442.001404 C 319.101074 442.114685 327.425659 442.049072 335.747833 441.963898 C 338.229767 441.938477 339.491394 442.797577 339.338989 445.429443 C 339.243011 447.087524 339.390503 448.758362 339.390594 450.423492 C 339.394226 519.87616 339.393555 589.328796 339.393433 658.781433 C 339.393433 661.270691 339.393433 663.759949 339.393433 666.802734 C 334.175537 667.206665 329.261719 667.587036 323.878113 667.979492 z" stroke-linecap="round" />
</g>
		<g transform="matrix(1 0 0 1 97.47 -60.58)" id="svg_9"  >
<path style="stroke: none; stroke-width: 1; stroke-dasharray: none; stroke-linecap: butt; stroke-dashoffset: 0; stroke-linejoin: miter; stroke-miterlimit: 4; fill: rgb(152,215,231); fill-rule: nonzero; opacity: 1;" vector-effect="non-scaling-stroke"  transform=" translate(-414.96, -366.58)" d="M 375.507263 361.737793 C 378.708313 339.318939 398.415161 326.504761 415.903961 326.768707 C 436.503967 327.07959 452.935913 343.309418 454.726257 365.460663 C 456.173828 383.370941 441.07077 403.306274 422.519958 405.423035 C 408.048645 407.07431 393.277679 406.07666 378.6409 406.317719 C 375.154633 406.375153 375.078094 404.044098 375.096313 401.623779 C 375.195374 388.473785 375.325714 375.324005 375.507263 361.737793 z" stroke-linecap="round" />
</g>
		<g transform="matrix(1 0 0 1 -87.26 -60.42)" id="svg_10"  >
<path style="stroke: none; stroke-width: 1; stroke-dasharray: none; stroke-linecap: butt; stroke-dashoffset: 0; stroke-linejoin: miter; stroke-miterlimit: 4; fill: rgb(152,215,231); fill-rule: nonzero; opacity: 1;" vector-effect="non-scaling-stroke"  transform=" translate(-230.22, -366.74)" d="M 231.844208 326.818481 C 252.237869 328.50943 267.838226 342.939697 269.500031 362.787476 C 270.592468 375.835205 269.83902 389.037354 269.915375 402.170349 C 269.929626 404.624695 269.258789 406.364349 266.296478 406.341858 C 252.496567 406.236969 238.557373 407.407776 224.928253 405.848053 C 204.003204 403.4534 188.912308 384.240845 190.459747 364.341766 C 192.149673 342.610046 209.221909 326.952759 231.844208 326.818481 z" stroke-linecap="round" />
</g>
		<g transform="matrix(1 0 0 1 -117.69 -230.11)" id="svg_11"  >
<path style="stroke: none; stroke-width: 1; stroke-dasharray: none; stroke-linecap: butt; stroke-dashoffset: 0; stroke-linejoin: miter; stroke-miterlimit: 4; fill: rgb(254,255,255); fill-rule: nonzero; opacity: 1;" vector-effect="non-scaling-stroke"  transform=" translate(-199.8, -197.05)" d="M 330.772614 76.465874 C 334.07608 88.93 326.542694 99.234383 313.901001 99.944695 C 283.012634 101.680214 253.479477 108.817116 225.80925 122.744263 C 196.114975 137.690186 170.722382 158.091095 150.34584 184.478165 C 126.474632 215.390778 111.850494 250.288483 106.122322 288.88092 C 104.979843 296.578125 104.647682 304.395508 103.939537 312.157257 C 102.74678 325.230774 90.853653 333.212006 79.07972 328.841705 C 72.701134 326.47406 67.646973 319.533844 68.065529 311.981079 C 68.734535 299.908875 69.417938 287.759674 71.371246 275.852356 C 75.70192 249.452744 84.297371 224.361816 96.684334 200.60347 C 107.44178 179.970535 121.05603 161.431915 136.90509 144.407196 C 158.937622 120.740379 184.569351 102.062866 213.685852 88.175789 C 237.683838 76.729988 262.887726 69.13942 289.328583 65.978188 C 297.387451 65.014679 305.505951 64.327797 313.614899 64.067581 C 321.695984 63.808262 327.852325 68.491333 330.772614 76.465874 z" stroke-linecap="round" />
</g>
</g>
</g>
</svg>